<?xml version="1.0" encoding="utf-8"?>
<!-- Generator: Adobe Illustrator 23.0.3, SVG Export Plug-In . SVG Version: 6.00 Build 0)  -->
<svg version="1.1" id="Layer_1" xmlns="http://www.w3.org/2000/svg" xmlns:xlink="http://www.w3.org/1999/xlink" x="0px" y="0px"
	 viewBox="0 0 195 85" style="enable-background:new 0 0 195 85;" xml:space="preserve">
<style type="text/css">
	.st0{fill-rule:evenodd;clip-rule:evenodd;fill:#1D1D1B;}
	.st1{fill:none;stroke:#E6352F;stroke-linecap:round;stroke-linejoin:round;stroke-miterlimit:22.9256;}
	.st2{fill:none;stroke:#1D1D1B;stroke-linecap:round;stroke-linejoin:round;stroke-miterlimit:22.9256;}
</style>
<path class="st0" d="M85.66,24.23v-9.41h6.8v1.11h-5.56v2.88h5.21v1.1h-5.21v3.2h5.78v1.11H85.66L85.66,24.23z M93.92,21.54
	l1.04-0.09c0.05,0.42,0.16,0.76,0.34,1.03c0.18,0.27,0.46,0.48,0.84,0.65c0.38,0.17,0.81,0.25,1.28,0.25c0.42,0,0.79-0.06,1.12-0.19
	c0.32-0.13,0.56-0.3,0.72-0.52c0.16-0.22,0.24-0.46,0.24-0.72c0-0.26-0.08-0.49-0.23-0.69c-0.15-0.2-0.4-0.36-0.75-0.49
	c-0.23-0.09-0.72-0.22-1.49-0.41c-0.77-0.18-1.3-0.36-1.61-0.52c-0.4-0.21-0.7-0.47-0.89-0.78c-0.19-0.31-0.29-0.66-0.29-1.04
	c0-0.42,0.12-0.81,0.36-1.18c0.24-0.37,0.59-0.65,1.05-0.84c0.46-0.19,0.97-0.28,1.53-0.28c0.62,0,1.16,0.1,1.64,0.3
	c0.47,0.2,0.84,0.49,1.09,0.88c0.25,0.39,0.39,0.83,0.41,1.32l-1.06,0.08c-0.06-0.53-0.25-0.93-0.58-1.2
	c-0.33-0.27-0.81-0.4-1.45-0.4c-0.67,0-1.16,0.12-1.46,0.37c-0.3,0.24-0.46,0.54-0.46,0.88c0,0.3,0.11,0.55,0.32,0.74
	c0.21,0.19,0.77,0.39,1.67,0.6c0.9,0.2,1.51,0.38,1.85,0.53c0.49,0.23,0.85,0.51,1.08,0.85c0.23,0.34,0.35,0.74,0.35,1.19
	c0,0.45-0.13,0.86-0.38,1.26c-0.25,0.39-0.62,0.7-1.1,0.92c-0.48,0.22-1.01,0.33-1.61,0.33c-0.76,0-1.39-0.11-1.9-0.33
	c-0.51-0.22-0.91-0.55-1.2-0.99C94.08,22.6,93.93,22.1,93.92,21.54L93.92,21.54z M108.03,21.3l1.11,0.28
	c-0.23,0.91-0.65,1.6-1.25,2.08c-0.6,0.48-1.34,0.71-2.21,0.71c-0.9,0-1.63-0.18-2.2-0.55c-0.56-0.37-0.99-0.9-1.29-1.59
	c-0.29-0.7-0.44-1.44-0.44-2.24c0-0.87,0.16-1.63,0.5-2.28c0.33-0.65,0.8-1.14,1.42-1.48c0.61-0.34,1.29-0.5,2.02-0.5
	c0.84,0,1.54,0.21,2.11,0.64c0.57,0.43,0.97,1.02,1.19,1.79l-1.09,0.26c-0.19-0.61-0.48-1.05-0.84-1.33
	c-0.37-0.28-0.83-0.42-1.39-0.42c-0.64,0-1.18,0.15-1.61,0.46c-0.43,0.31-0.74,0.72-0.91,1.24c-0.18,0.52-0.26,1.05-0.26,1.6
	c0,0.71,0.1,1.33,0.31,1.86c0.21,0.53,0.53,0.93,0.97,1.19c0.44,0.26,0.91,0.39,1.42,0.39c0.62,0,1.14-0.18,1.57-0.53
	C107.59,22.53,107.88,22,108.03,21.3L108.03,21.3z M115.98,15.87h1.11v4.83c0,0.84-0.1,1.51-0.29,2c-0.19,0.49-0.53,0.89-1.03,1.2
	c-0.5,0.31-1.15,0.46-1.95,0.46c-0.78,0-1.42-0.13-1.92-0.4c-0.5-0.27-0.85-0.66-1.07-1.17c-0.21-0.51-0.32-1.21-0.32-2.09v-4.83
	h1.11v4.82c0,0.73,0.07,1.26,0.2,1.6c0.13,0.34,0.37,0.61,0.69,0.8c0.33,0.19,0.73,0.28,1.21,0.28c0.81,0,1.39-0.18,1.74-0.55
	c0.34-0.37,0.52-1.08,0.52-2.12V15.87L115.98,15.87z M118.95,24.23v-8.35h6.04v0.99h-4.93v2.56h4.62v0.98h-4.62v2.84h5.13v0.99
	H118.95L118.95,24.23z M126.66,24.23v-8.35h1.11v7.37h4.11v0.99H126.66L126.66,24.23z M132.28,24.23l3.21-8.35h1.19l3.42,8.35h-1.26
	l-0.97-2.53h-3.49l-0.92,2.53H132.28L132.28,24.23z M134.69,20.8h2.83l-0.87-2.31c-0.26-0.7-0.46-1.28-0.59-1.73
	c-0.11,0.54-0.26,1.07-0.45,1.6L134.69,20.8L134.69,20.8z M92.35,35.61l1.25,0.32c-0.26,1.02-0.73,1.8-1.41,2.34
	c-0.68,0.54-1.51,0.8-2.49,0.8c-1.01,0-1.84-0.21-2.47-0.62c-0.64-0.41-1.12-1.01-1.45-1.79c-0.33-0.78-0.5-1.63-0.5-2.52
	c0-0.98,0.19-1.83,0.56-2.56c0.38-0.73,0.91-1.28,1.6-1.66c0.69-0.38,1.45-0.57,2.28-0.57c0.94,0,1.73,0.24,2.37,0.72
	c0.64,0.48,1.09,1.15,1.34,2.02l-1.22,0.29c-0.22-0.69-0.53-1.18-0.95-1.5c-0.41-0.31-0.94-0.47-1.57-0.47
	c-0.72,0-1.33,0.17-1.81,0.52c-0.49,0.35-0.83,0.81-1.02,1.4c-0.2,0.58-0.3,1.19-0.3,1.81c0,0.8,0.12,1.5,0.35,2.1
	c0.23,0.6,0.6,1.04,1.09,1.34c0.49,0.3,1.03,0.44,1.6,0.44c0.7,0,1.29-0.2,1.77-0.6C91.85,37,92.18,36.4,92.35,35.61L92.35,35.61z
	 M94.68,34.85c0-1.39,0.37-2.47,1.12-3.26c0.74-0.78,1.71-1.18,2.88-1.18c0.77,0,1.47,0.18,2.08,0.55c0.62,0.37,1.09,0.88,1.42,1.54
	c0.32,0.66,0.49,1.41,0.49,2.24c0,0.85-0.17,1.61-0.51,2.27c-0.34,0.67-0.83,1.17-1.45,1.52c-0.63,0.34-1.3,0.52-2.03,0.52
	c-0.79,0-1.49-0.19-2.11-0.57c-0.62-0.38-1.09-0.9-1.41-1.56C94.84,36.27,94.68,35.58,94.68,34.85L94.68,34.85z M95.82,34.86
	c0,1.01,0.27,1.8,0.81,2.38c0.54,0.58,1.22,0.87,2.04,0.87c0.83,0,1.52-0.29,2.05-0.88c0.54-0.59,0.81-1.42,0.81-2.49
	c0-0.68-0.12-1.27-0.35-1.78c-0.23-0.51-0.57-0.9-1.01-1.18c-0.44-0.28-0.94-0.42-1.49-0.42c-0.78,0-1.46,0.27-2.02,0.81
	C96.1,32.71,95.82,33.61,95.82,34.86L95.82,34.86z M104.05,38.91v-8.35h1.11v7.37h4.11v0.99H104.05L104.05,38.91z M110.25,34.85
	c0-1.39,0.37-2.47,1.12-3.26c0.74-0.78,1.71-1.18,2.88-1.18c0.77,0,1.47,0.18,2.09,0.55c0.62,0.37,1.09,0.88,1.42,1.54
	c0.33,0.66,0.49,1.41,0.49,2.24c0,0.85-0.17,1.61-0.51,2.27c-0.34,0.67-0.83,1.17-1.45,1.52c-0.63,0.34-1.3,0.52-2.03,0.52
	c-0.79,0-1.49-0.19-2.11-0.57c-0.62-0.38-1.09-0.9-1.41-1.56C110.41,36.27,110.25,35.58,110.25,34.85L110.25,34.85z M111.39,34.86
	c0,1.01,0.27,1.8,0.81,2.38c0.54,0.58,1.22,0.87,2.04,0.87c0.83,0,1.52-0.29,2.05-0.88c0.54-0.59,0.81-1.42,0.81-2.49
	c0-0.68-0.12-1.27-0.35-1.78c-0.23-0.51-0.57-0.9-1.01-1.18c-0.44-0.28-0.94-0.42-1.49-0.42c-0.78,0-1.46,0.27-2.02,0.81
	C111.67,32.71,111.39,33.61,111.39,34.86L111.39,34.86z M119.62,38.91v-8.35h1.66l1.98,5.91c0.18,0.55,0.32,0.96,0.4,1.24
	c0.1-0.3,0.24-0.75,0.45-1.34l2-5.81h1.49v8.35h-1.07v-6.99l-2.43,6.99h-1l-2.42-7.11v7.11H119.62L119.62,38.91z M129.33,38.91
	v-8.35h3.13c0.64,0,1.15,0.09,1.53,0.25c0.39,0.17,0.69,0.43,0.91,0.78c0.22,0.35,0.33,0.72,0.33,1.1c0,0.36-0.1,0.69-0.29,1.01
	c-0.19,0.32-0.49,0.57-0.88,0.76c0.51,0.15,0.89,0.4,1.17,0.76c0.27,0.36,0.41,0.78,0.41,1.27c0,0.39-0.08,0.75-0.25,1.09
	c-0.17,0.34-0.37,0.59-0.61,0.78c-0.24,0.18-0.55,0.32-0.91,0.41c-0.37,0.09-0.82,0.14-1.35,0.14H129.33L129.33,38.91z
	 M130.44,34.07h1.81c0.49,0,0.84-0.03,1.05-0.1c0.28-0.08,0.49-0.22,0.63-0.42c0.14-0.19,0.21-0.44,0.21-0.73
	c0-0.28-0.07-0.52-0.2-0.73c-0.13-0.21-0.32-0.36-0.57-0.43c-0.25-0.08-0.67-0.12-1.27-0.12h-1.67V34.07L130.44,34.07z
	 M130.44,37.93h2.08c0.36,0,0.61-0.01,0.75-0.04c0.25-0.05,0.47-0.12,0.64-0.23c0.17-0.11,0.31-0.26,0.42-0.46
	c0.11-0.2,0.16-0.44,0.16-0.7c0-0.31-0.08-0.58-0.24-0.81c-0.16-0.23-0.38-0.39-0.66-0.48c-0.28-0.09-0.69-0.14-1.22-0.14h-1.93
	V37.93L130.44,37.93z M137.35,38.91v-8.35h1.11v8.35H137.35L137.35,38.91z M139.49,38.91l3.21-8.35h1.19l3.42,8.35h-1.26l-0.97-2.53
	h-3.49l-0.92,2.53H139.49L139.49,38.91z M141.9,35.48h2.83l-0.87-2.31c-0.26-0.7-0.46-1.28-0.59-1.73c-0.11,0.54-0.26,1.07-0.45,1.6
	L141.9,35.48L141.9,35.48z M148.18,38.91v-8.35h1.13l4.39,6.56v-6.56h1.06v8.35h-1.13l-4.39-6.56v6.56H148.18L148.18,38.91z
	 M155.7,38.91l3.21-8.35h1.19l3.42,8.35h-1.26l-0.97-2.53h-3.49l-0.92,2.53H155.7L155.7,38.91z M158.11,35.48h2.83l-0.87-2.31
	c-0.26-0.7-0.46-1.28-0.59-1.73c-0.11,0.54-0.26,1.07-0.45,1.6L158.11,35.48L158.11,35.48z M85.52,53.6v-8.35h2.88
	c0.65,0,1.15,0.04,1.49,0.12c0.48,0.11,0.89,0.31,1.22,0.6c0.44,0.37,0.77,0.85,0.99,1.43c0.22,0.58,0.33,1.24,0.33,1.99
	c0,0.63-0.07,1.2-0.22,1.69c-0.15,0.49-0.34,0.9-0.57,1.22c-0.23,0.32-0.48,0.57-0.76,0.76c-0.27,0.18-0.61,0.32-1,0.42
	c-0.39,0.1-0.84,0.14-1.34,0.14H85.52L85.52,53.6z M86.63,52.61h1.78c0.55,0,0.98-0.05,1.3-0.15c0.31-0.1,0.56-0.25,0.75-0.43
	c0.26-0.26,0.47-0.61,0.61-1.06c0.15-0.44,0.22-0.98,0.22-1.61c0-0.87-0.14-1.54-0.43-2.01c-0.29-0.47-0.64-0.78-1.05-0.94
	c-0.3-0.11-0.77-0.17-1.43-0.17h-1.76V52.61L86.63,52.61z M93.97,53.6v-8.35h6.04v0.99h-4.93v2.56h4.62v0.98h-4.62v2.84h5.13v0.99
	H93.97L93.97,53.6z M105.71,53.6v-9.41h1.24v9.41H105.71L105.71,53.6z M109.03,53.6v-8.35h1.13l4.39,6.56v-6.56h1.06v8.35h-1.13
	l-4.39-6.56v6.56H109.03L109.03,53.6z M121.37,50.32v-0.98l3.54-0.01v3.1c-0.54,0.43-1.1,0.76-1.68,0.98
	c-0.58,0.22-1.17,0.33-1.78,0.33c-0.82,0-1.57-0.18-2.24-0.53c-0.67-0.35-1.18-0.86-1.52-1.52c-0.34-0.67-0.51-1.41-0.51-2.23
	c0-0.81,0.17-1.57,0.51-2.28c0.34-0.71,0.83-1.23,1.47-1.57c0.64-0.34,1.37-0.51,2.21-0.51c0.6,0,1.15,0.1,1.64,0.29
	c0.49,0.19,0.87,0.47,1.15,0.82c0.28,0.35,0.49,0.81,0.63,1.37l-1,0.27c-0.13-0.43-0.28-0.76-0.47-1c-0.19-0.24-0.45-0.44-0.8-0.58
	c-0.34-0.15-0.73-0.22-1.15-0.22c-0.51,0-0.94,0.08-1.31,0.23c-0.37,0.15-0.66,0.36-0.89,0.61c-0.23,0.25-0.4,0.52-0.53,0.83
	c-0.21,0.52-0.32,1.08-0.32,1.68c0,0.74,0.13,1.37,0.38,1.87c0.26,0.5,0.63,0.87,1.12,1.12c0.49,0.24,1.01,0.37,1.56,0.37
	c0.48,0,0.95-0.09,1.4-0.28c0.46-0.18,0.8-0.38,1.04-0.59v-1.56H121.37L121.37,50.32z M126.56,53.6v-8.35h6.04v0.99h-4.93v2.56h4.62
	v0.98h-4.62v2.84h5.13v0.99H126.56L126.56,53.6z M134.31,53.6v-8.35h1.13l4.39,6.56v-6.56h1.06v8.35h-1.13l-4.39-6.56v6.56H134.31
	L134.31,53.6z M142.94,53.6v-8.35h1.11v8.35H142.94L142.94,53.6z M146.02,53.6v-8.35h6.04v0.99h-4.93v2.56h4.62v0.98h-4.62v2.84
	h5.13v0.99H146.02L146.02,53.6z M153.79,53.6v-8.35h3.7c0.75,0,1.31,0.08,1.7,0.22c0.39,0.15,0.7,0.41,0.93,0.79
	c0.23,0.38,0.35,0.8,0.35,1.26c0,0.59-0.19,1.09-0.58,1.5c-0.38,0.41-0.98,0.66-1.78,0.78c0.29,0.14,0.52,0.28,0.67,0.42
	c0.32,0.3,0.63,0.67,0.92,1.11l1.45,2.27h-1.39l-1.1-1.74c-0.32-0.5-0.59-0.88-0.8-1.15c-0.21-0.27-0.4-0.45-0.56-0.56
	c-0.17-0.11-0.33-0.18-0.5-0.22c-0.13-0.03-0.33-0.04-0.62-0.04h-1.28v3.71H153.79L153.79,53.6z M154.9,48.93h2.38
	c0.5,0,0.9-0.05,1.18-0.16c0.29-0.1,0.5-0.27,0.65-0.5c0.15-0.23,0.22-0.48,0.22-0.75c0-0.39-0.14-0.72-0.43-0.97
	c-0.29-0.25-0.74-0.38-1.36-0.38h-2.64V48.93L154.9,48.93z M162.39,53.6v-8.35h1.1v8.35H162.39L162.39,53.6z M162.11,44.73
	l0.76-1.59h1.34l-1.25,1.59H162.11L162.11,44.73z M164.53,53.6l3.21-8.35h1.19l3.42,8.35h-1.26l-0.97-2.53h-3.49l-0.92,2.53H164.53
	L164.53,53.6z M166.94,50.17h2.83l-0.87-2.31c-0.26-0.7-0.46-1.28-0.59-1.73c-0.11,0.54-0.26,1.07-0.45,1.6L166.94,50.17
	L166.94,50.17z M85,65.61l1.12-0.15c0.03,0.72,0.16,1.21,0.4,1.48c0.24,0.26,0.57,0.4,1,0.4c0.31,0,0.58-0.07,0.81-0.21
	c0.23-0.14,0.38-0.34,0.47-0.58c0.09-0.25,0.13-0.64,0.13-1.18v-6.48h1.24v6.41c0,0.79-0.09,1.4-0.29,1.83
	c-0.19,0.43-0.49,0.76-0.9,0.99c-0.41,0.23-0.9,0.34-1.46,0.34c-0.83,0-1.46-0.24-1.9-0.71C85.19,67.26,84.98,66.55,85,65.61
	L85,65.61z M97.58,59.93h1.11v4.83c0,0.84-0.1,1.51-0.29,2c-0.19,0.49-0.53,0.89-1.03,1.2c-0.5,0.31-1.15,0.47-1.95,0.47
	c-0.78,0-1.42-0.13-1.92-0.4c-0.5-0.27-0.85-0.66-1.07-1.17c-0.21-0.51-0.32-1.21-0.32-2.09v-4.83h1.11v4.82
	c0,0.73,0.07,1.26,0.2,1.6c0.13,0.34,0.37,0.61,0.69,0.8c0.33,0.19,0.73,0.28,1.21,0.28c0.81,0,1.39-0.18,1.74-0.55
	c0.34-0.37,0.52-1.08,0.52-2.12V59.93L97.58,59.93z M100.48,68.29v-8.35h1.11v7.37h4.11v0.99H100.48L100.48,68.29z M107.2,68.29
	v-8.35h1.1v8.35H107.2L107.2,68.29z M109.92,64.22c0-1.39,0.37-2.47,1.12-3.26c0.75-0.78,1.71-1.18,2.88-1.18
	c0.77,0,1.47,0.18,2.09,0.55c0.62,0.37,1.09,0.88,1.42,1.54c0.32,0.66,0.49,1.41,0.49,2.24c0,0.85-0.17,1.61-0.51,2.27
	c-0.34,0.67-0.83,1.17-1.45,1.52c-0.63,0.34-1.3,0.52-2.03,0.52c-0.79,0-1.49-0.19-2.11-0.57c-0.62-0.38-1.09-0.9-1.41-1.56
	C110.08,65.65,109.92,64.95,109.92,64.22L109.92,64.22z M111.06,64.24c0,1.01,0.27,1.8,0.81,2.38c0.54,0.58,1.22,0.87,2.04,0.87
	c0.83,0,1.52-0.29,2.05-0.88c0.54-0.59,0.81-1.42,0.81-2.49c0-0.68-0.12-1.27-0.35-1.78c-0.23-0.51-0.57-0.9-1.01-1.18
	c-0.44-0.28-0.94-0.42-1.49-0.42c-0.78,0-1.46,0.27-2.02,0.81C111.34,62.08,111.06,62.98,111.06,64.24L111.06,64.24z M127.5,64.59
	v-1.1l3.99-0.01v3.49c-0.61,0.49-1.24,0.85-1.89,1.1c-0.65,0.24-1.32,0.37-2,0.37c-0.92,0-1.77-0.2-2.52-0.59
	c-0.76-0.39-1.33-0.97-1.71-1.72c-0.39-0.75-0.58-1.59-0.58-2.51c0-0.92,0.19-1.77,0.58-2.56c0.38-0.8,0.93-1.38,1.65-1.77
	c0.72-0.38,1.55-0.58,2.48-0.58c0.68,0,1.29,0.11,1.84,0.33c0.55,0.22,0.98,0.53,1.29,0.92c0.31,0.39,0.55,0.91,0.71,1.54
	l-1.12,0.31c-0.14-0.48-0.32-0.86-0.53-1.13c-0.21-0.27-0.51-0.49-0.9-0.66c-0.39-0.16-0.82-0.25-1.29-0.25
	c-0.57,0-1.06,0.09-1.48,0.26c-0.42,0.17-0.75,0.4-1.01,0.68c-0.25,0.28-0.45,0.59-0.59,0.93c-0.24,0.58-0.36,1.21-0.36,1.89
	c0,0.84,0.14,1.54,0.43,2.11c0.29,0.57,0.71,0.98,1.26,1.26c0.55,0.27,1.14,0.41,1.76,0.41c0.54,0,1.07-0.11,1.58-0.31
	c0.51-0.21,0.9-0.43,1.17-0.66v-1.75H127.5L127.5,64.59z M132.29,68.29l3.21-8.35h1.19l3.42,8.35h-1.26l-0.97-2.53h-3.49l-0.92,2.53
	H132.29L132.29,68.29z M134.7,64.86h2.83l-0.87-2.31c-0.26-0.7-0.46-1.28-0.59-1.73c-0.11,0.54-0.26,1.07-0.45,1.6L134.7,64.86
	L134.7,64.86z M141.01,68.29v-8.35h3.7c0.75,0,1.31,0.08,1.7,0.23c0.39,0.15,0.7,0.41,0.93,0.79c0.23,0.38,0.35,0.8,0.35,1.26
	c0,0.59-0.19,1.09-0.58,1.5c-0.38,0.41-0.98,0.66-1.78,0.78c0.29,0.14,0.51,0.28,0.67,0.42c0.32,0.29,0.63,0.67,0.92,1.11l1.45,2.27
	h-1.39l-1.11-1.74c-0.32-0.5-0.59-0.88-0.8-1.15c-0.21-0.27-0.4-0.45-0.56-0.56c-0.17-0.11-0.33-0.18-0.5-0.22
	c-0.13-0.02-0.33-0.04-0.62-0.04h-1.28v3.71H141.01L141.01,68.29z M142.11,63.62h2.38c0.5,0,0.9-0.05,1.18-0.16
	c0.29-0.11,0.5-0.27,0.65-0.5c0.15-0.23,0.22-0.48,0.22-0.75c0-0.4-0.14-0.72-0.43-0.98c-0.29-0.25-0.74-0.38-1.36-0.38h-2.64V63.62
	L142.11,63.62z M148.5,68.29l3.21-8.35h1.19l3.42,8.35h-1.26l-0.97-2.53h-3.49l-0.92,2.53H148.5L148.5,68.29z M150.91,64.86h2.83
	l-0.87-2.31c-0.26-0.7-0.46-1.28-0.59-1.73c-0.11,0.54-0.26,1.07-0.45,1.6L150.91,64.86L150.91,64.86z M158.72,68.29l-3.24-8.35h1.2
	l2.17,6.07c0.18,0.49,0.32,0.94,0.44,1.37c0.13-0.46,0.28-0.91,0.45-1.37l2.26-6.07h1.13l-3.27,8.35H158.72L158.72,68.29z
	 M164.31,68.29v-8.35h1.1v8.35H164.31L164.31,68.29z M169.49,68.29v-7.37h-2.75v-0.99h6.62v0.99h-2.76v7.37H169.49L169.49,68.29z
	 M173.94,64.22c0-1.39,0.37-2.47,1.12-3.26c0.74-0.78,1.71-1.18,2.88-1.18c0.77,0,1.47,0.18,2.08,0.55
	c0.62,0.37,1.09,0.88,1.42,1.54c0.32,0.66,0.49,1.41,0.49,2.24c0,0.85-0.17,1.61-0.51,2.27c-0.34,0.67-0.83,1.17-1.45,1.52
	c-0.63,0.34-1.3,0.52-2.03,0.52c-0.79,0-1.49-0.19-2.11-0.57c-0.62-0.38-1.09-0.9-1.41-1.56C174.1,65.65,173.94,64.95,173.94,64.22
	L173.94,64.22z M175.08,64.24c0,1.01,0.27,1.8,0.81,2.38c0.54,0.58,1.22,0.87,2.04,0.87c0.83,0,1.52-0.29,2.05-0.88
	c0.54-0.59,0.81-1.42,0.81-2.49c0-0.68-0.12-1.27-0.35-1.78c-0.23-0.51-0.57-0.9-1.01-1.18c-0.44-0.28-0.94-0.42-1.49-0.42
	c-0.78,0-1.46,0.27-2.02,0.81C175.36,62.08,175.08,62.98,175.08,64.24L175.08,64.24z"/>
<line class="st1" x1="40.9" y1="71.78" x2="73.91" y2="38.61"/>
<polyline class="st2" points="40.9,71.79 46.35,71.78 73.91,33.09 73.91,27.39 "/>
<path class="st1" d="M62.92,71.79L73.9,16.43 M52.03,71.6l21.88-44.22 M29.79,71.78l44.12-22.19 M18.78,71.7l55.13-10.98"/>
<path class="st2" d="M73.91,60.72v5.54l-55.13,5.52h5.65l49.47-16.66v-5.53 M73.91,38.61v5.44L35.27,71.78h-5.49"/>
<line class="st2" x1="76.99" y1="66.32" x2="76.99" y2="10.68"/>
<line class="st2" x1="80.02" y1="74.32" x2="13.07" y2="74.32"/>
<polyline class="st2" points="62.92,71.78 68.48,71.78 73.91,16.34 73.91,22.06 57.52,71.78 52.02,71.79 "/>
</svg>
