<?xml version="1.0" encoding="utf-8"?>
<!-- Generator: Adobe Illustrator 16.0.0, SVG Export Plug-In . SVG Version: 6.00 Build 0)  -->
<!DOCTYPE svg PUBLIC "-//W3C//DTD SVG 1.1//EN" "http://www.w3.org/Graphics/SVG/1.1/DTD/svg11.dtd">
<svg version="1.1" id="Capa_1" xmlns="http://www.w3.org/2000/svg" xmlns:xlink="http://www.w3.org/1999/xlink" x="0px" y="0px"
	 width="636.625px" height="79.984px" viewBox="0 0 636.625 79.984" enable-background="new 0 0 636.625 79.984"
	 xml:space="preserve">
<g>
	<g>
		<g>
			<path fill="#808080" d="M55.523,45.043c4,0.226,8.242,1.049,10.915,2.814c2.251-1.487,6.085-2.307,9.085-2.662V29.089h-20V45.043
				z"/>
			<path fill="#808080" d="M65.434,13.651L51.255,25.089h-1.732v2h1v17.973c1-0.056,1.997-0.085,2.83-0.085
				c0.251,0,0.17,0.003,1.17,0.009V27.089h1v-1h21v1l0,0V45.06c1-0.059,1.765-0.084,2.535-0.084c0.471,0,1.465,0.026,1.465,0.045
				V27.089h2v-3h-2.397L65.434,13.651z M65.711,23.912c-1.533,0-2.78-1.247-2.78-2.781c0-1.522,1.247-2.771,2.78-2.771
				c1.534,0,2.771,1.249,2.771,2.771C68.482,22.665,67.245,23.912,65.711,23.912z"/>
			<path fill="#808080" d="M48.949,45.283c0.244-0.035,0.574-0.05,0.574-0.079V29.089h-1v-1.362l-3,2.493v-7.912l5.652-5.219H30.341
				l-1.818,12.968v16.032h-1v2.986C34.523,47.752,44.149,45.975,48.949,45.283z M40.523,33.089h7v4h-7V33.089z M40.523,39.089h7v4
				h-7V39.089z M30.523,33.089h7v4h-7V33.089z M30.523,39.089h7v4h-7V39.089z"/>
			<path fill="#808080" d="M87.523,30.025l-4-3.129v1.191h-1v16.997c0,0.05,1.033,0.109,1.642,0.197
				c4.799,0.691,14.358,2.469,21.358,3.792v-2.986h-2V30.056l-2.329-12.968H81.045l6.478,5.18V30.025L87.523,30.025z M90.523,43.089
				h-7v-4h7V43.089z M93.523,33.089h7v3h-7V33.089z M93.523,39.089h7v4h-7V39.089z M90.523,36.089h-7v-3h7V36.089z"/>
			<polygon fill="#808080" points="46.523,27.01 65.377,11.462 86.523,27.01 86.523,22.594 65.614,7.045 46.523,22.594 			"/>
		</g>
		<g>
			<path fill="#808080" d="M115.476,68.363c0,0-0.002-0.007-0.005-0.021l-0.018-0.046c-0.048-0.104-0.192-0.312-0.6-0.416
				c-3.977-0.638-24.85-3.98-31.684-4.965c-5.779-0.832-13.721,0.178-16.763,2.754c-3.042-2.576-10.983-3.586-16.763-2.754
				c-6.834,0.983-27.708,4.327-31.684,4.965c-0.406,0.104-0.551,0.313-0.599,0.416l-0.018,0.046
				c-0.004,0.014-0.006,0.021-0.006,0.021l-0.001-0.003l-0.849,2.119c0.049,0.068,0.193,0.144,0.607,0.101
				c4.094-0.663,25.293-4.087,32.242-5.09c6.344-0.917,13.91-0.169,16.433,2.771c0.05,0.061,0.355,0.466,0.639,0.471
				c0.283,0.004,0.716-0.462,0.782-0.536c2.563-2.899,9.979-3.616,16.289-2.704c6.948,1.003,28.148,4.427,32.242,5.09
				c0.414,0.043,0.557-0.031,0.606-0.101l-0.849-2.119L115.476,68.363z"/>
			<path fill="#808080" d="M112.517,53.885L112.517,53.885l-0.021-0.061c-0.039-0.086-0.144-0.248-0.417-0.36l-0.34-0.055
				c-0.705-0.112-3.029-0.544-5.972-1.09c-6.947-1.288-17.444-3.232-22.441-3.953c-1.365-0.196-2.845-0.296-4.396-0.296
				c-3.979,0-9.445,0.737-12.523,2.771c-3.078-2.032-8.544-2.771-12.523-2.771c-1.552,0-3.03,0.1-4.396,0.296
				c-4.997,0.721-15.494,2.665-22.441,3.953c-2.943,0.546-5.267,0.978-5.972,1.09l-0.34,0.055c-0.273,0.112-0.378,0.274-0.417,0.36
				l-0.021,0.06v0.001l-3.868,10.953c0.021,0.146,0.152,0.318,0.694,0.225l1.031-0.179c0.236-0.041,23.739-4.1,31.34-5.195
				c1.565-0.227,3.263-0.345,4.91-0.346c7.99-0.013,9.682,2.068,10.949,2.977c0.474,0.34,0.654,0.739,1.055,0.736
				c0.401,0.003,0.581-0.396,1.055-0.736c1.267-0.907,2.959-2.988,10.949-2.977c1.647,0.001,3.344,0.119,4.91,0.346
				c7.601,1.097,31.104,5.154,31.34,5.195l1.031,0.179c0.541,0.095,0.672-0.079,0.694-0.225L112.517,53.885z M83.636,57.504
				c-1.691-0.244-3.449-0.368-5.225-0.368c-2.172,0-8.829,0.245-11.939,3.072c-0.021,0.02-0.037,0.035-0.065,0.035
				c-0.029,0-0.043-0.017-0.065-0.035c-3.11-2.827-9.768-3.072-11.939-3.072c-1.776,0-3.534,0.124-5.225,0.368
				c-6.368,0.92-23.81,3.902-29.546,4.889l2.442-6.916c1.049-0.186,2.946-0.537,5.375-0.987c6.93-1.284,17.4-3.225,22.353-3.938
				c1.262-0.183,2.635-0.273,4.082-0.273c5.103,0,9.841,1.177,11.804,2.839c0,0,0.438,0.479,0.72,0.538
				c0.282-0.059,0.72-0.538,0.72-0.538c1.961-1.662,6.701-2.839,11.804-2.839c1.447,0,2.82,0.092,4.081,0.273
				c4.953,0.714,15.424,2.653,22.354,3.938c2.429,0.45,4.326,0.803,5.375,0.987l2.443,6.916
				C107.445,61.406,90.003,58.424,83.636,57.504z"/>
		</g>
	</g>
	<g>
		<path fill="#990000" d="M139.183,51.29c2.178,1.341,5.361,2.457,8.712,2.457c4.97,0,7.874-2.624,7.874-6.422
			c0-3.519-2.01-5.529-7.092-7.483c-6.143-2.179-9.941-5.36-9.941-10.667c0-5.863,4.859-10.22,12.175-10.22
			c3.854,0,6.646,0.895,8.321,1.843l-1.34,3.966c-1.229-0.671-3.742-1.787-7.148-1.787c-5.138,0-7.093,3.07-7.093,5.641
			c0,3.519,2.29,5.25,7.483,7.26c6.367,2.458,9.606,5.529,9.606,11.059c0,5.809-4.3,10.835-13.18,10.835
			c-3.63,0-7.595-1.063-9.605-2.401L139.183,51.29z"/>
		<path fill="#990000" d="M170.289,44.589c0.112,6.646,4.356,9.383,9.271,9.383c3.519,0,5.641-0.614,7.483-1.396l0.838,3.519
			c-1.731,0.782-4.691,1.677-8.992,1.677c-8.321,0-13.292-5.475-13.292-13.627c0-8.153,4.803-14.576,12.677-14.576
			c8.824,0,11.169,7.763,11.169,12.732c0,1.006-0.111,1.787-0.167,2.29L170.289,44.589L170.289,44.589z M184.698,41.07
			c0.056-3.128-1.285-7.986-6.813-7.986c-4.971,0-7.148,4.579-7.54,7.986H184.698z"/>
		<path fill="#990000" d="M195.531,38.613c0-3.184-0.056-5.92-0.223-8.434h4.3l0.167,5.306h0.223c1.229-3.63,4.188-5.92,7.484-5.92
			c0.558,0,0.949,0.056,1.396,0.168v4.635c-0.502-0.111-1.005-0.167-1.675-0.167c-3.462,0-5.92,2.625-6.59,6.312
			c-0.111,0.67-0.223,1.451-0.223,2.289V57.21h-4.859V38.613z"/>
		<path fill="#990000" d="M217.087,30.18l5.306,15.189c0.894,2.458,1.619,4.691,2.178,6.925h0.168
			c0.614-2.232,1.396-4.467,2.289-6.925l5.25-15.189h5.138l-10.61,27.029h-4.691L211.839,30.18H217.087z"/>
		<path fill="#990000" d="M247.523,22.585c0.056,1.675-1.173,3.017-3.127,3.017c-1.731,0-2.96-1.342-2.96-3.017
			c0-1.73,1.284-3.071,3.071-3.071C246.35,19.513,247.523,20.854,247.523,22.585z M242.05,57.21V30.18h4.914V57.21H242.05z"/>
		<path fill="#990000" d="M274.385,56.205c-1.284,0.67-4.133,1.563-7.763,1.563c-8.153,0-13.459-5.529-13.459-13.794
			c0-8.321,5.696-14.354,14.521-14.354c2.904,0,5.473,0.728,6.813,1.396l-1.117,3.798c-1.173-0.67-3.016-1.284-5.696-1.284
			c-6.199,0-9.55,4.579-9.55,10.22c0,6.255,4.021,10.108,9.382,10.108c2.793,0,4.636-0.728,6.032-1.341L274.385,56.205z"/>
		<path fill="#990000" d="M285.61,22.585c0.056,1.675-1.173,3.017-3.127,3.017c-1.731,0-2.96-1.342-2.96-3.017
			c0-1.73,1.284-3.071,3.071-3.071C284.437,19.513,285.61,20.854,285.61,22.585z M280.137,57.21V30.18h4.914V57.21H280.137z"/>
		<path fill="#990000" d="M317.667,43.472c0,9.995-6.925,14.353-13.459,14.353c-7.316,0-12.957-5.361-12.957-13.906
			c0-9.047,5.92-14.353,13.403-14.353C312.417,29.565,317.667,35.206,317.667,43.472z M296.221,43.751
			c0,5.92,3.406,10.389,8.209,10.389c4.691,0,8.21-4.412,8.21-10.5c0-4.579-2.29-10.388-8.098-10.388S296.221,38.613,296.221,43.751
			z"/>
		<path fill="#990000" d="M323.193,52.184c1.453,0.948,4.021,1.955,6.479,1.955c3.574,0,5.25-1.787,5.25-4.021
			c0-2.346-1.396-3.63-5.026-4.971c-4.857-1.73-7.147-4.411-7.147-7.65c0-4.355,3.519-7.931,9.326-7.931
			c2.735,0,5.138,0.782,6.646,1.676l-1.229,3.574c-1.061-0.67-3.016-1.563-5.528-1.563c-2.903,0-4.522,1.675-4.522,3.687
			c0,2.232,1.619,3.238,5.138,4.579c4.69,1.787,7.093,4.133,7.093,8.153c0,4.747-3.688,8.099-10.107,8.099
			c-2.961,0-5.696-0.728-7.597-1.844L323.193,52.184z"/>
		<path fill="#990000" d="M364.074,45.37l-3.909,11.84h-5.026l12.789-37.641h5.863l12.846,37.641h-5.193l-4.021-11.84H364.074z
			 M376.416,41.572l-3.686-10.834c-0.838-2.457-1.396-4.691-1.955-6.869h-0.111c-0.559,2.234-1.173,4.523-1.898,6.813l-3.687,10.89
			H376.416z"/>
		<path fill="#990000" d="M410.594,56.205c-1.284,0.67-4.133,1.563-7.763,1.563c-8.153,0-13.459-5.529-13.459-13.794
			c0-8.321,5.696-14.354,14.521-14.354c2.904,0,5.474,0.728,6.813,1.396l-1.117,3.798c-1.173-0.67-3.016-1.284-5.696-1.284
			c-6.198,0-9.55,4.579-9.55,10.22c0,6.255,4.021,10.108,9.382,10.108c2.793,0,4.637-0.728,6.032-1.341L410.594,56.205z"/>
		<path fill="#990000" d="M431.314,57.21l-0.392-3.405h-0.168c-1.508,2.121-4.412,4.021-8.266,4.021
			c-5.474,0-8.266-3.854-8.266-7.763c0-6.534,5.809-10.108,16.251-10.054V39.45c0-2.233-0.613-6.255-6.144-6.255
			c-2.513,0-5.138,0.782-7.036,2.011l-1.117-3.239c2.234-1.451,5.475-2.4,8.88-2.4c8.267,0,10.275,5.641,10.275,11.058v10.108
			c0,2.346,0.112,4.636,0.447,6.479L431.314,57.21L431.314,57.21z M430.588,43.416c-5.361-0.111-11.449,0.838-11.449,6.087
			c0,3.185,2.122,4.691,4.637,4.691c3.518,0,5.752-2.234,6.533-4.523c0.167-0.503,0.279-1.062,0.279-1.563V43.416z"/>
		<path fill="#990000" d="M466.609,17.559V50.23c0,2.4,0.056,5.138,0.224,6.979h-4.412l-0.224-4.69h-0.111
			c-1.508,3.016-4.803,5.306-9.215,5.306c-6.534,0-11.561-5.529-11.561-13.738c-0.057-8.99,5.528-14.521,12.118-14.521
			c4.134,0,6.925,1.955,8.153,4.133h0.112v-16.14H466.609z M461.695,41.182c0-0.614-0.058-1.452-0.225-2.066
			c-0.727-3.127-3.406-5.696-7.093-5.696c-5.082,0-8.098,4.469-8.098,10.443c0,5.474,2.681,9.997,7.985,9.997
			c3.295,0,6.312-2.179,7.204-5.864c0.167-0.67,0.225-1.34,0.225-2.122L461.695,41.182L461.695,41.182z"/>
		<path fill="#990000" d="M477.499,44.589c0.111,6.646,4.354,9.383,9.271,9.383c3.52,0,5.642-0.614,7.483-1.396l0.838,3.519
			c-1.73,0.782-4.69,1.677-8.991,1.677c-8.32,0-13.292-5.475-13.292-13.627c0-8.153,4.804-14.576,12.679-14.576
			c8.822,0,11.169,7.763,11.169,12.732c0,1.006-0.111,1.787-0.167,2.29L477.499,44.589L477.499,44.589z M491.907,41.07
			c0.056-3.128-1.284-7.986-6.813-7.986c-4.97,0-7.147,4.579-7.539,7.986H491.907z M493.08,18.508l-6.813,7.986h-3.518l4.914-7.986
			H493.08z"/>
		<path fill="#990000" d="M502.741,37.496c0-2.793-0.058-5.082-0.225-7.315h4.301l0.224,4.355h0.168
			c1.508-2.569,4.021-4.971,8.488-4.971c3.687,0,6.479,2.233,7.65,5.417h0.111c0.838-1.508,1.899-2.682,3.016-3.519
			c1.62-1.229,3.407-1.898,5.977-1.898c3.574,0,8.88,2.346,8.88,11.729V57.21h-4.803V41.908c0-5.194-1.898-8.321-5.864-8.321
			c-2.792,0-4.97,2.066-5.808,4.469c-0.225,0.67-0.392,1.563-0.392,2.457V57.21h-4.803V41.015c0-4.302-1.899-7.429-5.641-7.429
			c-3.072,0-5.307,2.457-6.089,4.914c-0.278,0.728-0.391,1.563-0.391,2.401V57.21h-4.803V37.496H502.741z"/>
		<path fill="#990000" d="M554.79,22.585c0.056,1.675-1.173,3.017-3.127,3.017c-1.731,0-2.96-1.342-2.96-3.017
			c0-1.73,1.284-3.071,3.07-3.071C553.617,19.513,554.79,20.854,554.79,22.585z M549.317,57.21V30.18h4.914V57.21H549.317z"/>
		<path fill="#990000" d="M581.652,56.205c-1.284,0.67-4.133,1.563-7.764,1.563c-8.152,0-13.459-5.529-13.459-13.794
			c0-8.321,5.696-14.354,14.521-14.354c2.904,0,5.473,0.728,6.813,1.396l-1.117,3.798c-1.173-0.67-3.016-1.284-5.695-1.284
			c-6.199,0-9.55,4.579-9.55,10.22c0,6.255,4.021,10.108,9.382,10.108c2.793,0,4.636-0.728,6.032-1.341L581.652,56.205z"/>
		<path fill="#990000" d="M611.53,43.472c0,9.995-6.925,14.353-13.459,14.353c-7.316,0-12.957-5.361-12.957-13.906
			c0-9.047,5.92-14.353,13.403-14.353C606.28,29.565,611.53,35.206,611.53,43.472z M590.084,43.751
			c0,5.92,3.406,10.389,8.209,10.389c4.691,0,8.21-4.412,8.21-10.5c0-4.579-2.29-10.388-8.098-10.388
			C592.597,33.252,590.084,38.613,590.084,43.751z"/>
		<path fill="#990000" d="M617.058,52.184c1.452,0.948,4.021,1.955,6.479,1.955c3.574,0,5.25-1.787,5.25-4.021
			c0-2.346-1.396-3.63-5.026-4.971c-4.857-1.73-7.147-4.411-7.147-7.65c0-4.355,3.519-7.931,9.326-7.931
			c2.735,0,5.139,0.782,6.646,1.676l-1.229,3.574c-1.061-0.67-3.016-1.563-5.527-1.563c-2.904,0-4.523,1.675-4.523,3.687
			c0,2.232,1.619,3.238,5.139,4.579c4.69,1.787,7.093,4.133,7.093,8.153c0,4.747-3.688,8.099-10.108,8.099
			c-2.96,0-5.695-0.728-7.596-1.844L617.058,52.184z"/>
	</g>
</g>
</svg>
